M48
; DRILL file KiCad 10.0.6-10.0.6~ubuntu26.04.1 date 2026-09-07T15:55:55
; FORMAT={-:-/ absolute / metric / decimal}
; #@! TF.CreationDate,2026-09-07T15:55:55-04:00
; #@! TF.GenerationSoftware,Kicad,Pcbnew,10.0.6-10.0.6~ubuntu26.04.1
; #@! TF.FileFunction,Plated,1,4,PTH
FMAT,2
METRIC
; #@! TA.AperFunction,Plated,PTH,ViaDrill
T1C0.300
; #@! TA.AperFunction,Plated,PTH,ComponentDrill
T2C0.800
; #@! TA.AperFunction,Plated,PTH,ComponentDrill
T3C0.900
; #@! TA.AperFunction,Plated,PTH,ComponentDrill
T4C1.000
; #@! TA.AperFunction,Plated,PTH,ComponentDrill
T5C1.100
; #@! TA.AperFunction,Plated,PTH,ComponentDrill
T6C1.300
%
G90
G05
T1
X151.05Y-136.5
X156.8Y-147.45
X161.45Y-159.45
X165.05Y-166.95
X168.15Y-109.6
X171.2Y-133.45
X171.55Y-148.15
X172.9Y-159.3
X173.35Y-133.65
X176.85Y-146.5
X176.95Y-161.3
X178.05Y-108.4
X178.7Y-130.0
X179.3Y-166.3
X183.4Y-165.55
X185.0Y-125.55
X186.35Y-145.6
X188.3Y-112.0
X190.25Y-123.95
X191.0Y-123.3
X191.0Y-148.85
X191.95Y-138.3
X192.584Y-112.916
X193.3Y-122.85
X194.45Y-109.0
X194.6Y-137.357
X194.6Y-150.65
X195.85Y-147.4
X195.95Y-122.15
X196.0Y-157.75
X196.8Y-166.55
X197.85Y-159.45
X198.3Y-121.6
X198.65Y-151.4
X199.25Y-157.15
X201.452Y-136.757
X202.65Y-109.6
X203.7Y-141.35
X204.05Y-156.4
X205.7Y-115.75
X208.4Y-110.5
X208.75Y-113.25
X211.05Y-109.0
X212.05Y-147.75
X212.85Y-112.65
X213.7Y-160.8
X214.65Y-119.75
X216.6Y-151.05
X216.7Y-115.75
X216.9Y-110.2
X217.8Y-134.0
X220.5Y-149.75
X223.7Y-126.5
X225.55Y-145.25
X227.65Y-108.05
X229.15Y-110.3
X229.9Y-109.7
X230.5Y-127.95
X231.05Y-108.15
T2
X140.98Y-111.5
X140.98Y-117.5
X140.99Y-114.5
X141.1Y-146.0
X141.58Y-135.78
X141.58Y-143.4
X143.65Y-120.6
X143.98Y-107.9
X144.12Y-135.78
X144.12Y-143.4
X146.1Y-146.0
X146.52Y-107.9
X146.66Y-135.78
X146.66Y-143.4
X148.25Y-146.0
X148.6Y-111.5
X148.6Y-117.5
X148.61Y-114.5
X148.65Y-120.6
X149.06Y-107.9
X149.2Y-130.05
X149.2Y-135.78
X149.2Y-143.4
X150.78Y-114.1
X150.78Y-117.2
X151.29Y-119.785
X151.29Y-127.405
X151.52Y-107.9
X151.8Y-133.1
X152.25Y-138.4
X152.25Y-143.4
X153.25Y-146.0
X153.83Y-119.785
X153.83Y-127.405
X154.06Y-107.9
X155.39Y-135.785
X155.39Y-143.405
X155.4Y-146.0
X156.37Y-119.785
X156.37Y-127.405
X156.6Y-107.9
X156.8Y-133.1
X156.82Y-130.05
X157.93Y-135.785
X157.93Y-143.405
X158.4Y-114.1
X158.4Y-117.2
X158.91Y-119.785
X158.91Y-127.405
X160.4Y-146.0
X160.47Y-135.785
X160.47Y-143.405
X160.5Y-131.5
X160.54Y-117.2
X160.55Y-114.15
X162.55Y-146.0
X163.0Y-131.5
X163.01Y-135.785
X163.01Y-143.405
X164.61Y-120.335
X164.61Y-127.955
X166.1Y-135.8
X166.1Y-140.8
X166.25Y-130.635
X167.15Y-120.335
X167.15Y-127.955
X167.55Y-146.0
X168.16Y-117.2
X168.17Y-114.15
X169.69Y-120.335
X169.69Y-127.955
X170.28Y-117.2
X170.29Y-114.15
X172.23Y-120.335
X172.23Y-127.955
X173.87Y-130.635
X174.77Y-120.335
X174.77Y-127.955
X176.0Y-130.65
X177.31Y-120.335
X177.31Y-127.955
X177.9Y-117.2
X177.91Y-114.15
X178.65Y-135.49
X178.65Y-143.11
X179.85Y-120.335
X179.85Y-127.955
X180.03Y-114.15
X180.8Y-117.2
X181.0Y-130.65
X181.7Y-135.48
X181.7Y-143.1
X182.39Y-120.335
X182.39Y-127.955
X184.75Y-135.48
X184.75Y-143.1
X185.8Y-117.2
X187.65Y-114.15
X187.9Y-135.53
X187.9Y-143.15
X188.43Y-117.6
X188.43Y-132.84
X189.78Y-114.15
X190.96Y-135.5
X190.96Y-143.12
X190.97Y-117.6
X190.97Y-132.84
X193.5Y-135.5
X193.5Y-143.12
X193.51Y-117.6
X193.51Y-132.84
X194.85Y-145.84
X194.85Y-153.46
X194.85Y-155.6
X194.85Y-163.22
X196.04Y-135.5
X196.04Y-143.12
X196.05Y-117.6
X196.05Y-132.84
X197.4Y-114.15
X197.9Y-145.85
X197.9Y-153.47
X197.9Y-155.6
X197.9Y-163.22
X198.58Y-135.5
X198.58Y-143.12
X198.59Y-117.6
X198.59Y-132.84
X200.48Y-152.4
X200.48Y-155.45
X200.48Y-161.55
X200.49Y-146.3
X200.49Y-149.35
X200.49Y-158.5
X200.49Y-164.6
X201.12Y-135.5
X201.12Y-143.12
X201.13Y-117.6
X201.13Y-132.84
X203.66Y-135.5
X203.66Y-143.12
X203.67Y-117.6
X203.67Y-132.84
X206.2Y-135.5
X206.2Y-143.12
X206.21Y-117.6
X206.21Y-132.84
X208.1Y-152.4
X208.1Y-155.45
X208.1Y-161.55
X208.11Y-146.3
X208.11Y-149.35
X208.11Y-158.5
X208.11Y-164.6
X208.75Y-117.6
X208.75Y-132.84
X210.23Y-146.3
X210.7Y-148.9
X210.7Y-156.52
X211.29Y-117.6
X211.29Y-132.84
X212.26Y-135.5
X212.26Y-143.12
X212.9Y-158.63
X212.9Y-166.25
X213.2Y-114.95
X213.75Y-148.9
X213.75Y-156.52
X213.83Y-117.6
X213.83Y-132.84
X214.8Y-135.5
X214.8Y-143.12
X215.95Y-158.65
X215.95Y-166.27
X216.37Y-117.6
X216.37Y-132.84
X217.34Y-135.5
X217.34Y-143.12
X217.85Y-146.3
X218.2Y-114.95
X219.5Y-152.2
X219.5Y-161.1
X219.88Y-135.5
X219.88Y-143.12
X220.38Y-116.3
X220.38Y-118.84
X220.38Y-121.38
X220.38Y-123.92
X220.38Y-126.46
X220.38Y-129.0
X220.38Y-131.54
X222.0Y-152.2
X222.0Y-161.1
X222.42Y-135.5
X222.42Y-143.12
X224.96Y-135.5
X224.96Y-143.12
X227.5Y-135.5
X227.5Y-143.12
X228.0Y-116.3
X228.0Y-118.84
X228.0Y-121.38
X228.0Y-123.92
X228.0Y-126.46
X228.0Y-129.0
X228.0Y-131.54
T3
X142.57Y-163.15
X145.11Y-163.15
X151.71Y-163.15
X154.25Y-163.15
X160.71Y-163.15
X163.25Y-163.15
X169.11Y-163.15
X171.65Y-163.15
X178.27Y-163.15
X180.81Y-163.15
X187.41Y-163.15
X189.95Y-163.15
T4
X169.7Y-106.32
X169.7Y-111.4
X173.85Y-106.32
X173.85Y-111.4
X178.0Y-106.32
X178.0Y-111.4
X182.15Y-106.32
X182.15Y-111.4
X186.3Y-106.32
X186.3Y-111.4
X190.2Y-106.3
X190.2Y-111.38
X194.35Y-106.3
X194.35Y-111.38
X198.5Y-106.3
X198.5Y-111.38
X202.65Y-106.3
X202.65Y-111.38
X206.8Y-106.3
X206.8Y-111.38
X211.0Y-106.3
X211.0Y-111.38
X215.15Y-106.3
X215.15Y-111.38
X219.3Y-106.3
X219.3Y-111.38
X223.45Y-106.3
X223.45Y-111.38
X227.2Y-148.18
X227.2Y-150.72
X227.2Y-153.26
X227.2Y-155.8
X227.2Y-161.06
X227.2Y-163.6
X227.6Y-106.3
X227.6Y-111.38
T5
X159.6Y-106.6
X159.6Y-111.1
X166.1Y-106.6
X166.1Y-111.1
T6
X141.45Y-150.25
X141.45Y-155.25
X141.7Y-125.4
X141.7Y-130.4
X146.45Y-152.75
X146.7Y-127.9
X150.34Y-150.25
X150.34Y-155.25
X155.34Y-152.75
X159.23Y-150.25
X159.23Y-155.25
X164.23Y-152.75
X168.12Y-150.25
X168.12Y-155.25
X170.5Y-137.1
X170.5Y-142.1
X173.12Y-152.75
X175.5Y-139.6
X176.92Y-150.25
X176.92Y-155.25
X181.92Y-152.75
X185.81Y-150.25
X185.81Y-155.25
X190.81Y-152.75
M30
