%TF.GenerationSoftware,KiCad,Pcbnew,10.0.6-10.0.6~ubuntu26.04.1*%
%TF.CreationDate,2026-09-07T15:55:13-04:00*%
%TF.ProjectId,555_doom_kicad,3535355f-646f-46f6-9d5f-6b696361642e,rev?*%
%TF.SameCoordinates,Original*%
%TF.FileFunction,Soldermask,Top*%
%TF.FilePolarity,Negative*%
%FSLAX46Y46*%
G04 Gerber Fmt 4.6, Leading zero omitted, Abs format (unit mm)*
G04 Created by KiCad (PCBNEW 10.0.6-10.0.6~ubuntu26.04.1) date 2026-09-07 15:55:13*
%MOMM*%
%LPD*%
G01*
G04 APERTURE LIST*
G04 Aperture macros list*
%AMRoundRect*
0 Rectangle with rounded corners*
0 $1 Rounding radius*
0 $2 $3 $4 $5 $6 $7 $8 $9 X,Y pos of 4 corners*
0 Add a 4 corners polygon primitive as box body*
4,1,4,$2,$3,$4,$5,$6,$7,$8,$9,$2,$3,0*
0 Add four circle primitives for the rounded corners*
1,1,$1+$1,$2,$3*
1,1,$1+$1,$4,$5*
1,1,$1+$1,$6,$7*
1,1,$1+$1,$8,$9*
0 Add four rect primitives between the rounded corners*
20,1,$1+$1,$2,$3,$4,$5,0*
20,1,$1+$1,$4,$5,$6,$7,0*
20,1,$1+$1,$6,$7,$8,$9,0*
20,1,$1+$1,$8,$9,$2,$3,0*%
G04 Aperture macros list end*
%ADD10C,2.340000*%
%ADD11C,1.600000*%
%ADD12R,1.800000X1.800000*%
%ADD13C,1.800000*%
%ADD14RoundRect,0.250000X0.750000X-0.750000X0.750000X0.750000X-0.750000X0.750000X-0.750000X-0.750000X0*%
%ADD15C,2.000000*%
%ADD16R,1.700000X1.700000*%
%ADD17C,1.700000*%
%ADD18RoundRect,0.250000X0.550000X-0.550000X0.550000X0.550000X-0.550000X0.550000X-0.550000X-0.550000X0*%
%ADD19RoundRect,0.250000X-0.550000X-0.550000X0.550000X-0.550000X0.550000X0.550000X-0.550000X0.550000X0*%
%ADD20RoundRect,0.250000X0.550000X0.550000X-0.550000X0.550000X-0.550000X-0.550000X0.550000X-0.550000X0*%
%ADD21R,1.500000X1.500000*%
%ADD22C,1.500000*%
G04 APERTURE END LIST*
D10*
%TO.C,RV4*%
X159230000Y-150250000D03*
X164230000Y-152750000D03*
X159230000Y-155250000D03*
%TD*%
D11*
%TO.C,C1*%
X148650000Y-120600000D03*
X143650000Y-120600000D03*
%TD*%
%TO.C,C12*%
X162550000Y-146000000D03*
X167550000Y-146000000D03*
%TD*%
D12*
%TO.C,D20*%
X178270000Y-163150000D03*
D13*
X180810000Y-163150000D03*
%TD*%
D14*
%TO.C,D4*%
X182150000Y-111400000D03*
D15*
X182150000Y-106320000D03*
%TD*%
D11*
%TO.C,R3*%
X166250000Y-130635000D03*
X173870000Y-130635000D03*
%TD*%
%TO.C,R15*%
X178650000Y-135490000D03*
X178650000Y-143110000D03*
%TD*%
%TO.C,R27*%
X208110000Y-158500000D03*
X200490000Y-158500000D03*
%TD*%
%TO.C,C2*%
X151800000Y-133100000D03*
X156800000Y-133100000D03*
%TD*%
D16*
%TO.C,J1*%
X227200000Y-148180000D03*
D17*
X227200000Y-150720000D03*
X227200000Y-153260000D03*
X227200000Y-155800000D03*
%TD*%
D14*
%TO.C,D9*%
X202650000Y-111380000D03*
D15*
X202650000Y-106300000D03*
%TD*%
D14*
%TO.C,D12*%
X215150000Y-111380000D03*
D15*
X215150000Y-106300000D03*
%TD*%
D18*
%TO.C,U7*%
X141580000Y-143400000D03*
D11*
X144120000Y-143400000D03*
X146660000Y-143400000D03*
X149200000Y-143400000D03*
X149200000Y-135780000D03*
X146660000Y-135780000D03*
X144120000Y-135780000D03*
X141580000Y-135780000D03*
%TD*%
D10*
%TO.C,RV8*%
X170500000Y-137100000D03*
X175500000Y-139600000D03*
X170500000Y-142100000D03*
%TD*%
D18*
%TO.C,U3*%
X188430000Y-132840000D03*
D11*
X190970000Y-132840000D03*
X193510000Y-132840000D03*
X196050000Y-132840000D03*
X198590000Y-132840000D03*
X201130000Y-132840000D03*
X203670000Y-132840000D03*
X206210000Y-132840000D03*
X208750000Y-132840000D03*
X211290000Y-132840000D03*
X213830000Y-132840000D03*
X216370000Y-132840000D03*
X216370000Y-117600000D03*
X213830000Y-117600000D03*
X211290000Y-117600000D03*
X208750000Y-117600000D03*
X206210000Y-117600000D03*
X203670000Y-117600000D03*
X201130000Y-117600000D03*
X198590000Y-117600000D03*
X196050000Y-117600000D03*
X193510000Y-117600000D03*
X190970000Y-117600000D03*
X188430000Y-117600000D03*
%TD*%
%TO.C,R26*%
X200480000Y-155450000D03*
X208100000Y-155450000D03*
%TD*%
D10*
%TO.C,RV7*%
X185810000Y-150250000D03*
X190810000Y-152750000D03*
X185810000Y-155250000D03*
%TD*%
D14*
%TO.C,D5*%
X186300000Y-111400000D03*
D15*
X186300000Y-106320000D03*
%TD*%
D14*
%TO.C,D2*%
X173850000Y-111400000D03*
D15*
X173850000Y-106320000D03*
%TD*%
D11*
%TO.C,R13*%
X210230000Y-146300000D03*
X217850000Y-146300000D03*
%TD*%
%TO.C,R21*%
X200480000Y-152400000D03*
X208100000Y-152400000D03*
%TD*%
D14*
%TO.C,D7*%
X194350000Y-111380000D03*
D15*
X194350000Y-106300000D03*
%TD*%
D19*
%TO.C,C14*%
X160500000Y-131500000D03*
D11*
X163000000Y-131500000D03*
%TD*%
D10*
%TO.C,RV1*%
X141700000Y-125400000D03*
X146700000Y-127900000D03*
X141700000Y-130400000D03*
%TD*%
D12*
%TO.C,D19*%
X169110000Y-163150000D03*
D13*
X171650000Y-163150000D03*
%TD*%
D11*
%TO.C,R6*%
X148600000Y-117500000D03*
X140980000Y-117500000D03*
%TD*%
%TO.C,R32*%
X194850000Y-163220000D03*
X194850000Y-155600000D03*
%TD*%
%TO.C,R25*%
X212900000Y-158630000D03*
X212900000Y-166250000D03*
%TD*%
%TO.C,R19*%
X184750000Y-135480000D03*
X184750000Y-143100000D03*
%TD*%
%TO.C,R2*%
X150780000Y-114100000D03*
X158400000Y-114100000D03*
%TD*%
D18*
%TO.C,U2*%
X164610000Y-127955000D03*
D11*
X167150000Y-127955000D03*
X169690000Y-127955000D03*
X172230000Y-127955000D03*
X174770000Y-127955000D03*
X177310000Y-127955000D03*
X179850000Y-127955000D03*
X182390000Y-127955000D03*
X182390000Y-120335000D03*
X179850000Y-120335000D03*
X177310000Y-120335000D03*
X174770000Y-120335000D03*
X172230000Y-120335000D03*
X169690000Y-120335000D03*
X167150000Y-120335000D03*
X164610000Y-120335000D03*
%TD*%
D14*
%TO.C,D6*%
X190200000Y-111380000D03*
D15*
X190200000Y-106300000D03*
%TD*%
D11*
%TO.C,R23*%
X213750000Y-148900000D03*
X213750000Y-156520000D03*
%TD*%
D20*
%TO.C,U4*%
X228000000Y-131540000D03*
D11*
X228000000Y-129000000D03*
X228000000Y-126460000D03*
X228000000Y-123920000D03*
X228000000Y-121380000D03*
X228000000Y-118840000D03*
X228000000Y-116300000D03*
X220380000Y-116300000D03*
X220380000Y-118840000D03*
X220380000Y-121380000D03*
X220380000Y-123920000D03*
X220380000Y-126460000D03*
X220380000Y-129000000D03*
X220380000Y-131540000D03*
%TD*%
%TO.C,R14*%
X200490000Y-146300000D03*
X208110000Y-146300000D03*
%TD*%
%TO.C,R8*%
X170290000Y-114150000D03*
X177910000Y-114150000D03*
%TD*%
D14*
%TO.C,D8*%
X198500000Y-111380000D03*
D15*
X198500000Y-106300000D03*
%TD*%
D16*
%TO.C,J2*%
X227200000Y-161060000D03*
D17*
X227200000Y-163600000D03*
%TD*%
D12*
%TO.C,D17*%
X151710000Y-163150000D03*
D13*
X154250000Y-163150000D03*
%TD*%
D10*
%TO.C,RV3*%
X150340000Y-150250000D03*
X155340000Y-152750000D03*
X150340000Y-155250000D03*
%TD*%
D11*
%TO.C,R11*%
X180030000Y-114150000D03*
X187650000Y-114150000D03*
%TD*%
D14*
%TO.C,D15*%
X227600000Y-111380000D03*
D15*
X227600000Y-106300000D03*
%TD*%
D14*
%TO.C,D10*%
X206800000Y-111380000D03*
D15*
X206800000Y-106300000D03*
%TD*%
D11*
%TO.C,R1*%
X158400000Y-117200000D03*
X150780000Y-117200000D03*
%TD*%
%TO.C,C8*%
X146100000Y-146000000D03*
X141100000Y-146000000D03*
%TD*%
D10*
%TO.C,RV6*%
X176920000Y-150250000D03*
X181920000Y-152750000D03*
X176920000Y-155250000D03*
%TD*%
D11*
%TO.C,R12*%
X197400000Y-114150000D03*
X189780000Y-114150000D03*
%TD*%
D15*
%TO.C,SW1*%
X159600000Y-106600000D03*
X166100000Y-106600000D03*
X159600000Y-111100000D03*
X166100000Y-111100000D03*
%TD*%
D11*
%TO.C,R18*%
X197900000Y-145850000D03*
X197900000Y-153470000D03*
%TD*%
%TO.C,R7*%
X168170000Y-114150000D03*
X160550000Y-114150000D03*
%TD*%
%TO.C,R33*%
X149200000Y-130050000D03*
X156820000Y-130050000D03*
%TD*%
D21*
%TO.C,Q1*%
X151520000Y-107900000D03*
D22*
X154060000Y-107900000D03*
X156600000Y-107900000D03*
%TD*%
D11*
%TO.C,R20*%
X187900000Y-135530000D03*
X187900000Y-143150000D03*
%TD*%
D12*
%TO.C,D21*%
X187410000Y-163150000D03*
D13*
X189950000Y-163150000D03*
%TD*%
D18*
%TO.C,U6*%
X212260000Y-143120000D03*
D11*
X214800000Y-143120000D03*
X217340000Y-143120000D03*
X219880000Y-143120000D03*
X222420000Y-143120000D03*
X224960000Y-143120000D03*
X227500000Y-143120000D03*
X227500000Y-135500000D03*
X224960000Y-135500000D03*
X222420000Y-135500000D03*
X219880000Y-135500000D03*
X217340000Y-135500000D03*
X214800000Y-135500000D03*
X212260000Y-135500000D03*
%TD*%
D10*
%TO.C,RV2*%
X141450000Y-150250000D03*
X146450000Y-152750000D03*
X141450000Y-155250000D03*
%TD*%
D11*
%TO.C,R29*%
X208110000Y-164600000D03*
X200490000Y-164600000D03*
%TD*%
%TO.C,C7*%
X152250000Y-143400000D03*
X152250000Y-138400000D03*
%TD*%
%TO.C,C6*%
X218200000Y-114950000D03*
X213200000Y-114950000D03*
%TD*%
D19*
%TO.C,C11*%
X219500000Y-161100000D03*
D11*
X222000000Y-161100000D03*
%TD*%
D12*
%TO.C,D16*%
X142570000Y-163150000D03*
D13*
X145110000Y-163150000D03*
%TD*%
D14*
%TO.C,D13*%
X219300000Y-111380000D03*
D15*
X219300000Y-106300000D03*
%TD*%
D14*
%TO.C,D1*%
X169700000Y-111400000D03*
D15*
X169700000Y-106320000D03*
%TD*%
D11*
%TO.C,R16*%
X200490000Y-149350000D03*
X208110000Y-149350000D03*
%TD*%
D19*
%TO.C,C5*%
X219500000Y-152200000D03*
D11*
X222000000Y-152200000D03*
%TD*%
%TO.C,R10*%
X170280000Y-117200000D03*
X177900000Y-117200000D03*
%TD*%
D18*
%TO.C,U5*%
X190960000Y-143120000D03*
D11*
X193500000Y-143120000D03*
X196040000Y-143120000D03*
X198580000Y-143120000D03*
X201120000Y-143120000D03*
X203660000Y-143120000D03*
X206200000Y-143120000D03*
X206200000Y-135500000D03*
X203660000Y-135500000D03*
X201120000Y-135500000D03*
X198580000Y-135500000D03*
X196040000Y-135500000D03*
X193500000Y-135500000D03*
X190960000Y-135500000D03*
%TD*%
%TO.C,R4*%
X148600000Y-111500000D03*
X140980000Y-111500000D03*
%TD*%
%TO.C,C3*%
X181000000Y-130650000D03*
X176000000Y-130650000D03*
%TD*%
%TO.C,C9*%
X148250000Y-146000000D03*
X153250000Y-146000000D03*
%TD*%
%TO.C,R24*%
X215950000Y-158650000D03*
X215950000Y-166270000D03*
%TD*%
%TO.C,R31*%
X194850000Y-153460000D03*
X194850000Y-145840000D03*
%TD*%
D14*
%TO.C,D3*%
X178000000Y-111400000D03*
D15*
X178000000Y-106320000D03*
%TD*%
D21*
%TO.C,Q2*%
X143980000Y-107900000D03*
D22*
X146520000Y-107900000D03*
X149060000Y-107900000D03*
%TD*%
D11*
%TO.C,C4*%
X185800000Y-117200000D03*
X180800000Y-117200000D03*
%TD*%
%TO.C,R28*%
X208100000Y-161550000D03*
X200480000Y-161550000D03*
%TD*%
D14*
%TO.C,D14*%
X223450000Y-111380000D03*
D15*
X223450000Y-106300000D03*
%TD*%
D11*
%TO.C,R30*%
X197900000Y-163220000D03*
X197900000Y-155600000D03*
%TD*%
%TO.C,R22*%
X210700000Y-148900000D03*
X210700000Y-156520000D03*
%TD*%
D14*
%TO.C,D11*%
X211000000Y-111380000D03*
D15*
X211000000Y-106300000D03*
%TD*%
D11*
%TO.C,C10*%
X160400000Y-146000000D03*
X155400000Y-146000000D03*
%TD*%
%TO.C,R9*%
X160540000Y-117200000D03*
X168160000Y-117200000D03*
%TD*%
%TO.C,R17*%
X181700000Y-135480000D03*
X181700000Y-143100000D03*
%TD*%
%TO.C,C13*%
X166100000Y-140800000D03*
X166100000Y-135800000D03*
%TD*%
D18*
%TO.C,U1*%
X151290000Y-127405000D03*
D11*
X153830000Y-127405000D03*
X156370000Y-127405000D03*
X158910000Y-127405000D03*
X158910000Y-119785000D03*
X156370000Y-119785000D03*
X153830000Y-119785000D03*
X151290000Y-119785000D03*
%TD*%
%TO.C,R5*%
X148610000Y-114500000D03*
X140990000Y-114500000D03*
%TD*%
D12*
%TO.C,D18*%
X160710000Y-163150000D03*
D13*
X163250000Y-163150000D03*
%TD*%
D18*
%TO.C,U8*%
X155390000Y-143405000D03*
D11*
X157930000Y-143405000D03*
X160470000Y-143405000D03*
X163010000Y-143405000D03*
X163010000Y-135785000D03*
X160470000Y-135785000D03*
X157930000Y-135785000D03*
X155390000Y-135785000D03*
%TD*%
D10*
%TO.C,RV5*%
X168120000Y-150250000D03*
X173120000Y-152750000D03*
X168120000Y-155250000D03*
%TD*%
M02*
