%TF.GenerationSoftware,KiCad,Pcbnew,10.0.6-10.0.6~ubuntu26.04.1*%
%TF.CreationDate,2026-09-07T15:55:13-04:00*%
%TF.ProjectId,555_doom_kicad,3535355f-646f-46f6-9d5f-6b696361642e,rev?*%
%TF.SameCoordinates,Original*%
%TF.FileFunction,Copper,L4,Bot*%
%TF.FilePolarity,Positive*%
%FSLAX46Y46*%
G04 Gerber Fmt 4.6, Leading zero omitted, Abs format (unit mm)*
G04 Created by KiCad (PCBNEW 10.0.6-10.0.6~ubuntu26.04.1) date 2026-09-07 15:55:13*
%MOMM*%
%LPD*%
G01*
G04 APERTURE LIST*
G04 Aperture macros list*
%AMRoundRect*
0 Rectangle with rounded corners*
0 $1 Rounding radius*
0 $2 $3 $4 $5 $6 $7 $8 $9 X,Y pos of 4 corners*
0 Add a 4 corners polygon primitive as box body*
4,1,4,$2,$3,$4,$5,$6,$7,$8,$9,$2,$3,0*
0 Add four circle primitives for the rounded corners*
1,1,$1+$1,$2,$3*
1,1,$1+$1,$4,$5*
1,1,$1+$1,$6,$7*
1,1,$1+$1,$8,$9*
0 Add four rect primitives between the rounded corners*
20,1,$1+$1,$2,$3,$4,$5,0*
20,1,$1+$1,$4,$5,$6,$7,0*
20,1,$1+$1,$6,$7,$8,$9,0*
20,1,$1+$1,$8,$9,$2,$3,0*%
G04 Aperture macros list end*
%TA.AperFunction,ComponentPad*%
%ADD10C,2.340000*%
%TD*%
%TA.AperFunction,ComponentPad*%
%ADD11C,1.600000*%
%TD*%
%TA.AperFunction,ComponentPad*%
%ADD12R,1.800000X1.800000*%
%TD*%
%TA.AperFunction,ComponentPad*%
%ADD13C,1.800000*%
%TD*%
%TA.AperFunction,ComponentPad*%
%ADD14RoundRect,0.250000X0.750000X-0.750000X0.750000X0.750000X-0.750000X0.750000X-0.750000X-0.750000X0*%
%TD*%
%TA.AperFunction,ComponentPad*%
%ADD15C,2.000000*%
%TD*%
%TA.AperFunction,ComponentPad*%
%ADD16R,1.700000X1.700000*%
%TD*%
%TA.AperFunction,ComponentPad*%
%ADD17C,1.700000*%
%TD*%
%TA.AperFunction,ComponentPad*%
%ADD18RoundRect,0.250000X0.550000X-0.550000X0.550000X0.550000X-0.550000X0.550000X-0.550000X-0.550000X0*%
%TD*%
%TA.AperFunction,ComponentPad*%
%ADD19RoundRect,0.250000X-0.550000X-0.550000X0.550000X-0.550000X0.550000X0.550000X-0.550000X0.550000X0*%
%TD*%
%TA.AperFunction,ComponentPad*%
%ADD20RoundRect,0.250000X0.550000X0.550000X-0.550000X0.550000X-0.550000X-0.550000X0.550000X-0.550000X0*%
%TD*%
%TA.AperFunction,ComponentPad*%
%ADD21R,1.500000X1.500000*%
%TD*%
%TA.AperFunction,ComponentPad*%
%ADD22C,1.500000*%
%TD*%
%TA.AperFunction,ViaPad*%
%ADD23C,0.600000*%
%TD*%
%TA.AperFunction,Conductor*%
%ADD24C,0.200000*%
%TD*%
G04 APERTURE END LIST*
D10*
%TO.P,RV4,1,1_1*%
%TO.N,Net-(RV4-Pad1)*%
X159230000Y-150250000D03*
%TO.P,RV4,2,2_2*%
%TO.N,Net-(R29-Pad2)*%
X164230000Y-152750000D03*
%TO.P,RV4,3,3_3*%
%TO.N,unconnected-(RV4-Pad3)*%
X159230000Y-155250000D03*
%TD*%
D11*
%TO.P,C1,1*%
%TO.N,+5V*%
X148650000Y-120600000D03*
%TO.P,C1,2*%
%TO.N,GND*%
X143650000Y-120600000D03*
%TD*%
%TO.P,C12,1*%
%TO.N,Net-(C12-Pad1)*%
X162550000Y-146000000D03*
%TO.P,C12,2*%
%TO.N,GND*%
X167550000Y-146000000D03*
%TD*%
D12*
%TO.P,D20,1,K_1*%
%TO.N,GND*%
X178270000Y-163150000D03*
D13*
%TO.P,D20,2,A_2*%
%TO.N,Net-(D20-A)*%
X180810000Y-163150000D03*
%TD*%
D14*
%TO.P,D4,1,K_1*%
%TO.N,Net-(D4-K)*%
X182150000Y-111400000D03*
D15*
%TO.P,D4,2,A_2*%
%TO.N,/E2*%
X182150000Y-106320000D03*
%TD*%
D11*
%TO.P,R3,1*%
%TO.N,Net-(Q1-C)*%
X166250000Y-130635000D03*
%TO.P,R3,2*%
%TO.N,+5V*%
X173870000Y-130635000D03*
%TD*%
%TO.P,R15,1*%
%TO.N,Net-(R14-Pad1)*%
X178650000Y-135490000D03*
%TO.P,R15,2*%
%TO.N,Net-(D16-A)*%
X178650000Y-143110000D03*
%TD*%
%TO.P,R27,1*%
%TO.N,Net-(U7-DISCH)*%
X208110000Y-158500000D03*
%TO.P,R27,2*%
%TO.N,Net-(R27-Pad2)*%
X200490000Y-158500000D03*
%TD*%
%TO.P,C2,1*%
%TO.N,Net-(U1-THRES)*%
X151800000Y-133100000D03*
%TO.P,C2,2*%
%TO.N,GND*%
X156800000Y-133100000D03*
%TD*%
D16*
%TO.P,J1,1,Pin_1_1*%
%TO.N,+5V*%
X227200000Y-148180000D03*
D17*
%TO.P,J1,2,Pin_2_2*%
X227200000Y-150720000D03*
%TO.P,J1,3,Pin_3_3*%
%TO.N,GND*%
X227200000Y-153260000D03*
%TO.P,J1,4,Pin_4_4*%
X227200000Y-155800000D03*
%TD*%
D14*
%TO.P,D9,1,K_1*%
%TO.N,Net-(D9-K)*%
X202650000Y-111380000D03*
D15*
%TO.P,D9,2,A_2*%
%TO.N,/Bb2*%
X202650000Y-106300000D03*
%TD*%
D14*
%TO.P,D12,1,K_1*%
%TO.N,Net-(D12-K)*%
X215150000Y-111380000D03*
D15*
%TO.P,D12,2,A_2*%
%TO.N,/B2*%
X215150000Y-106300000D03*
%TD*%
D18*
%TO.P,U7,1,GND_1*%
%TO.N,GND*%
X141580000Y-143400000D03*
D11*
%TO.P,U7,2,TRIG_2*%
%TO.N,Net-(U7-THRES)*%
X144120000Y-143400000D03*
%TO.P,U7,3,OUT_3*%
%TO.N,Net-(U7-OUT)*%
X146660000Y-143400000D03*
%TO.P,U7,4,~{RST}_4*%
%TO.N,+5V*%
X149200000Y-143400000D03*
%TO.P,U7,5,CONT_5*%
%TO.N,Net-(U7-CONT)*%
X149200000Y-135780000D03*
%TO.P,U7,6,THRES_6*%
%TO.N,Net-(U7-THRES)*%
X146660000Y-135780000D03*
%TO.P,U7,7,DISCH_7*%
%TO.N,Net-(U7-DISCH)*%
X144120000Y-135780000D03*
%TO.P,U7,8,VCC_8*%
%TO.N,+5V*%
X141580000Y-135780000D03*
%TD*%
D10*
%TO.P,RV8,1,1_1*%
%TO.N,Net-(C9-Pad2)*%
X170500000Y-137100000D03*
%TO.P,RV8,2,2_2*%
%TO.N,Net-(U8-+)*%
X175500000Y-139600000D03*
%TO.P,RV8,3,3_3*%
%TO.N,GND*%
X170500000Y-142100000D03*
%TD*%
D18*
%TO.P,U3,1,~{S0}_1*%
%TO.N,Net-(D1-K)*%
X188430000Y-132840000D03*
D11*
%TO.P,U3,2,~{S1}_2*%
%TO.N,Net-(D2-K)*%
X190970000Y-132840000D03*
%TO.P,U3,3,~{S2}_3*%
%TO.N,Net-(D3-K)*%
X193510000Y-132840000D03*
%TO.P,U3,4,~{S3}_4*%
%TO.N,Net-(D4-K)*%
X196050000Y-132840000D03*
%TO.P,U3,5,~{S4}_5*%
%TO.N,Net-(D5-K)*%
X198590000Y-132840000D03*
%TO.P,U3,6,~{S5}_6*%
%TO.N,Net-(D6-K)*%
X201130000Y-132840000D03*
%TO.P,U3,7,~{S6}_7*%
%TO.N,Net-(D7-K)*%
X203670000Y-132840000D03*
%TO.P,U3,8,~{S7}_8*%
%TO.N,Net-(D8-K)*%
X206210000Y-132840000D03*
%TO.P,U3,9,~{S8}_9*%
%TO.N,Net-(D9-K)*%
X208750000Y-132840000D03*
%TO.P,U3,10,~{S9}_10*%
%TO.N,Net-(D10-K)*%
X211290000Y-132840000D03*
%TO.P,U3,11,~{S10}_11*%
%TO.N,Net-(D11-K)*%
X213830000Y-132840000D03*
%TO.P,U3,12,GND_12*%
%TO.N,GND*%
X216370000Y-132840000D03*
%TO.P,U3,13,~{S11}_13*%
%TO.N,Net-(D12-K)*%
X216370000Y-117600000D03*
%TO.P,U3,14,~{S12}_14*%
%TO.N,Net-(D13-K)*%
X213830000Y-117600000D03*
%TO.P,U3,15,~{S13}_15*%
%TO.N,Net-(D14-K)*%
X211290000Y-117600000D03*
%TO.P,U3,16,~{S14}_16*%
%TO.N,Net-(D15-K)*%
X208750000Y-117600000D03*
%TO.P,U3,17,~{S15}_17*%
%TO.N,Net-(U3-~{S15})*%
X206210000Y-117600000D03*
%TO.P,U3,18,~{E0}_18*%
%TO.N,GND*%
X203670000Y-117600000D03*
%TO.P,U3,19,~{E1}_19*%
X201130000Y-117600000D03*
%TO.P,U3,20,A3_20*%
%TO.N,Net-(U2-Q3)*%
X198590000Y-117600000D03*
%TO.P,U3,21,A2_21*%
%TO.N,Net-(U2-Q2)*%
X196050000Y-117600000D03*
%TO.P,U3,22,A1_22*%
%TO.N,Net-(U2-Q1)*%
X193510000Y-117600000D03*
%TO.P,U3,23,A0_23*%
%TO.N,Net-(U2-Q0)*%
X190970000Y-117600000D03*
%TO.P,U3,24,VCC_24*%
%TO.N,+5V*%
X188430000Y-117600000D03*
%TD*%
%TO.P,R26,1*%
%TO.N,+5V*%
X200480000Y-155450000D03*
%TO.P,R26,2*%
%TO.N,Net-(U7-DISCH)*%
X208100000Y-155450000D03*
%TD*%
D10*
%TO.P,RV7,1,1_1*%
%TO.N,Net-(RV7-Pad1)*%
X185810000Y-150250000D03*
%TO.P,RV7,2,2_2*%
%TO.N,Net-(R32-Pad2)*%
X190810000Y-152750000D03*
%TO.P,RV7,3,3_3*%
%TO.N,unconnected-(RV7-Pad3)*%
X185810000Y-155250000D03*
%TD*%
D14*
%TO.P,D5,1,K_1*%
%TO.N,Net-(D5-K)*%
X186300000Y-111400000D03*
D15*
%TO.P,D5,2,A_2*%
%TO.N,/D3*%
X186300000Y-106320000D03*
%TD*%
D14*
%TO.P,D2,1,K_1*%
%TO.N,Net-(D2-K)*%
X173850000Y-111400000D03*
D15*
%TO.P,D2,2,A_2*%
%TO.N,/E2*%
X173850000Y-106320000D03*
%TD*%
D11*
%TO.P,R13,1*%
%TO.N,+5V*%
X210230000Y-146300000D03*
%TO.P,R13,2*%
%TO.N,/E3*%
X217850000Y-146300000D03*
%TD*%
%TO.P,R21,1*%
%TO.N,Net-(R20-Pad1)*%
X200480000Y-152400000D03*
%TO.P,R21,2*%
%TO.N,Net-(D19-A)*%
X208100000Y-152400000D03*
%TD*%
D14*
%TO.P,D7,1,K_1*%
%TO.N,Net-(D7-K)*%
X194350000Y-111380000D03*
D15*
%TO.P,D7,2,A_2*%
%TO.N,/C3*%
X194350000Y-106300000D03*
%TD*%
D19*
%TO.P,C14,1*%
%TO.N,+5V*%
X160500000Y-131500000D03*
D11*
%TO.P,C14,2*%
%TO.N,GND*%
X163000000Y-131500000D03*
%TD*%
D10*
%TO.P,RV1,1,1_1*%
%TO.N,Net-(U1-THRES)*%
X141700000Y-125400000D03*
%TO.P,RV1,2,2_2*%
%TO.N,Net-(R1-Pad2)*%
X146700000Y-127900000D03*
%TO.P,RV1,3,3_3*%
%TO.N,unconnected-(RV1-Pad3)*%
X141700000Y-130400000D03*
%TD*%
D12*
%TO.P,D19,1,K_1*%
%TO.N,GND*%
X169110000Y-163150000D03*
D13*
%TO.P,D19,2,A_2*%
%TO.N,Net-(D19-A)*%
X171650000Y-163150000D03*
%TD*%
D11*
%TO.P,R6,1*%
%TO.N,+5V*%
X148600000Y-117500000D03*
%TO.P,R6,2*%
%TO.N,Net-(Q2-C)*%
X140980000Y-117500000D03*
%TD*%
%TO.P,R32,1*%
%TO.N,Net-(U7-DISCH)*%
X194850000Y-163220000D03*
%TO.P,R32,2*%
%TO.N,Net-(R32-Pad2)*%
X194850000Y-155600000D03*
%TD*%
%TO.P,R25,1*%
%TO.N,Net-(R24-Pad1)*%
X212900000Y-158630000D03*
%TO.P,R25,2*%
%TO.N,Net-(D21-A)*%
X212900000Y-166250000D03*
%TD*%
%TO.P,R19,1*%
%TO.N,Net-(R18-Pad1)*%
X184750000Y-135480000D03*
%TO.P,R19,2*%
%TO.N,Net-(D18-A)*%
X184750000Y-143100000D03*
%TD*%
%TO.P,R2,1*%
%TO.N,+5V*%
X150780000Y-114100000D03*
%TO.P,R2,2*%
%TO.N,Net-(U1-DISCH)*%
X158400000Y-114100000D03*
%TD*%
D18*
%TO.P,U2,1,~{MR}_1*%
%TO.N,Net-(Q1-C)*%
X164610000Y-127955000D03*
D11*
%TO.P,U2,2,CP_2*%
%TO.N,Net-(U1-OUT)*%
X167150000Y-127955000D03*
%TO.P,U2,3,D0_3*%
%TO.N,GND*%
X169690000Y-127955000D03*
%TO.P,U2,4,D1_4*%
X172230000Y-127955000D03*
%TO.P,U2,5,D2_5*%
X174770000Y-127955000D03*
%TO.P,U2,6,D3_6*%
X177310000Y-127955000D03*
%TO.P,U2,7,CEP_7*%
%TO.N,+5V*%
X179850000Y-127955000D03*
%TO.P,U2,8,GND_8*%
%TO.N,GND*%
X182390000Y-127955000D03*
%TO.P,U2,9,~{PE}_9*%
%TO.N,+5V*%
X182390000Y-120335000D03*
%TO.P,U2,10,CET_10*%
X179850000Y-120335000D03*
%TO.P,U2,11,Q3_11*%
%TO.N,Net-(U2-Q3)*%
X177310000Y-120335000D03*
%TO.P,U2,12,Q2_12*%
%TO.N,Net-(U2-Q2)*%
X174770000Y-120335000D03*
%TO.P,U2,13,Q1_13*%
%TO.N,Net-(U2-Q1)*%
X172230000Y-120335000D03*
%TO.P,U2,14,Q0_14*%
%TO.N,Net-(U2-Q0)*%
X169690000Y-120335000D03*
%TO.P,U2,15,TC_15*%
%TO.N,unconnected-(U2-TC-Pad15)*%
X167150000Y-120335000D03*
%TO.P,U2,16,VCC_16*%
%TO.N,+5V*%
X164610000Y-120335000D03*
%TD*%
D14*
%TO.P,D6,1,K_1*%
%TO.N,Net-(D6-K)*%
X190200000Y-111380000D03*
D15*
%TO.P,D6,2,A_2*%
%TO.N,/E2*%
X190200000Y-106300000D03*
%TD*%
D11*
%TO.P,R23,1*%
%TO.N,Net-(R22-Pad1)*%
X213750000Y-148900000D03*
%TO.P,R23,2*%
%TO.N,Net-(D20-A)*%
X213750000Y-156520000D03*
%TD*%
D20*
%TO.P,U4,1*%
%TO.N,/E2*%
X228000000Y-131540000D03*
D11*
%TO.P,U4,2*%
%TO.N,Net-(R14-Pad1)*%
X228000000Y-129000000D03*
%TO.P,U4,3*%
%TO.N,/Bb2*%
X228000000Y-126460000D03*
%TO.P,U4,4*%
%TO.N,Net-(R16-Pad1)*%
X228000000Y-123920000D03*
%TO.P,U4,5*%
%TO.N,/B2*%
X228000000Y-121380000D03*
%TO.P,U4,6*%
%TO.N,Net-(R18-Pad1)*%
X228000000Y-118840000D03*
%TO.P,U4,7,GND_7*%
%TO.N,GND*%
X228000000Y-116300000D03*
%TO.P,U4,8*%
%TO.N,Net-(R20-Pad1)*%
X220380000Y-116300000D03*
%TO.P,U4,9*%
%TO.N,/C3*%
X220380000Y-118840000D03*
%TO.P,U4,10*%
%TO.N,Net-(R22-Pad1)*%
X220380000Y-121380000D03*
%TO.P,U4,11*%
%TO.N,/D3*%
X220380000Y-123920000D03*
%TO.P,U4,12*%
%TO.N,Net-(R24-Pad1)*%
X220380000Y-126460000D03*
%TO.P,U4,13*%
%TO.N,/E3*%
X220380000Y-129000000D03*
%TO.P,U4,14,VCC_14*%
%TO.N,+5V*%
X220380000Y-131540000D03*
%TD*%
%TO.P,R14,1*%
%TO.N,Net-(R14-Pad1)*%
X200490000Y-146300000D03*
%TO.P,R14,2*%
%TO.N,GND*%
X208110000Y-146300000D03*
%TD*%
%TO.P,R8,1*%
%TO.N,+5V*%
X170290000Y-114150000D03*
%TO.P,R8,2*%
%TO.N,/E2*%
X177910000Y-114150000D03*
%TD*%
D14*
%TO.P,D8,1,K_1*%
%TO.N,Net-(D8-K)*%
X198500000Y-111380000D03*
D15*
%TO.P,D8,2,A_2*%
%TO.N,/E2*%
X198500000Y-106300000D03*
%TD*%
D16*
%TO.P,J2,1,Pin_1_1*%
%TO.N,Net-(J2-Pin_1)*%
X227200000Y-161060000D03*
D17*
%TO.P,J2,2,Pin_2_2*%
%TO.N,GND*%
X227200000Y-163600000D03*
%TD*%
D12*
%TO.P,D17,1,K_1*%
%TO.N,GND*%
X151710000Y-163150000D03*
D13*
%TO.P,D17,2,A_2*%
%TO.N,Net-(D17-A)*%
X154250000Y-163150000D03*
%TD*%
D10*
%TO.P,RV3,1,1_1*%
%TO.N,Net-(RV3-Pad1)*%
X150340000Y-150250000D03*
%TO.P,RV3,2,2_2*%
%TO.N,Net-(R28-Pad2)*%
X155340000Y-152750000D03*
%TO.P,RV3,3,3_3*%
%TO.N,unconnected-(RV3-Pad3)*%
X150340000Y-155250000D03*
%TD*%
D11*
%TO.P,R11,1*%
%TO.N,+5V*%
X180030000Y-114150000D03*
%TO.P,R11,2*%
%TO.N,/C3*%
X187650000Y-114150000D03*
%TD*%
D14*
%TO.P,D15,1,K_1*%
%TO.N,Net-(D15-K)*%
X227600000Y-111380000D03*
D15*
%TO.P,D15,2,A_2*%
%TO.N,/E3*%
X227600000Y-106300000D03*
%TD*%
D14*
%TO.P,D10,1,K_1*%
%TO.N,Net-(D10-K)*%
X206800000Y-111380000D03*
D15*
%TO.P,D10,2,A_2*%
%TO.N,/B2*%
X206800000Y-106300000D03*
%TD*%
D11*
%TO.P,R1,1*%
%TO.N,Net-(U1-DISCH)*%
X158400000Y-117200000D03*
%TO.P,R1,2*%
%TO.N,Net-(R1-Pad2)*%
X150780000Y-117200000D03*
%TD*%
%TO.P,C8,1*%
%TO.N,Net-(U7-THRES)*%
X146100000Y-146000000D03*
%TO.P,C8,2*%
%TO.N,GND*%
X141100000Y-146000000D03*
%TD*%
D10*
%TO.P,RV6,1,1_1*%
%TO.N,Net-(RV6-Pad1)*%
X176920000Y-150250000D03*
%TO.P,RV6,2,2_2*%
%TO.N,Net-(R31-Pad2)*%
X181920000Y-152750000D03*
%TO.P,RV6,3,3_3*%
%TO.N,unconnected-(RV6-Pad3)*%
X176920000Y-155250000D03*
%TD*%
D11*
%TO.P,R12,1*%
%TO.N,+5V*%
X197400000Y-114150000D03*
%TO.P,R12,2*%
%TO.N,/D3*%
X189780000Y-114150000D03*
%TD*%
D15*
%TO.P,SW1,1,1_1*%
%TO.N,GND*%
X159600000Y-106600000D03*
X166100000Y-106600000D03*
%TO.P,SW1,2,2_2*%
%TO.N,Net-(Q1-C)*%
X159600000Y-111100000D03*
X166100000Y-111100000D03*
%TD*%
D11*
%TO.P,R18,1*%
%TO.N,Net-(R18-Pad1)*%
X197900000Y-145850000D03*
%TO.P,R18,2*%
%TO.N,GND*%
X197900000Y-153470000D03*
%TD*%
%TO.P,R7,1*%
%TO.N,Net-(U3-~{S15})*%
X168170000Y-114150000D03*
%TO.P,R7,2*%
%TO.N,Net-(Q2-B)*%
X160550000Y-114150000D03*
%TD*%
%TO.P,R33,1*%
%TO.N,Net-(C11-Pad1)*%
X149200000Y-130050000D03*
%TO.P,R33,2*%
%TO.N,Net-(C12-Pad1)*%
X156820000Y-130050000D03*
%TD*%
D21*
%TO.P,Q1,1,E_1*%
%TO.N,GND*%
X151520000Y-107900000D03*
D22*
%TO.P,Q1,2,B_2*%
%TO.N,Net-(Q1-B)*%
X154060000Y-107900000D03*
%TO.P,Q1,3,C_3*%
%TO.N,Net-(Q1-C)*%
X156600000Y-107900000D03*
%TD*%
D11*
%TO.P,R20,1*%
%TO.N,Net-(R20-Pad1)*%
X187900000Y-135530000D03*
%TO.P,R20,2*%
%TO.N,GND*%
X187900000Y-143150000D03*
%TD*%
D12*
%TO.P,D21,1,K_1*%
%TO.N,GND*%
X187410000Y-163150000D03*
D13*
%TO.P,D21,2,A_2*%
%TO.N,Net-(D21-A)*%
X189950000Y-163150000D03*
%TD*%
D18*
%TO.P,U6,1*%
%TO.N,Net-(RV6-Pad1)*%
X212260000Y-143120000D03*
D11*
%TO.P,U6,2*%
%TO.N,Net-(U7-THRES)*%
X214800000Y-143120000D03*
%TO.P,U6,3*%
%TO.N,Net-(RV7-Pad1)*%
X217340000Y-143120000D03*
%TO.P,U6,4*%
%TO.N,Net-(U7-THRES)*%
X219880000Y-143120000D03*
%TO.P,U6,5*%
%TO.N,Net-(R24-Pad1)*%
X222420000Y-143120000D03*
%TO.P,U6,6*%
%TO.N,GND*%
X224960000Y-143120000D03*
%TO.P,U6,7,V_{SS}_7*%
X227500000Y-143120000D03*
%TO.P,U6,8*%
%TO.N,unconnected-(U6-Pad8)*%
X227500000Y-135500000D03*
%TO.P,U6,9*%
%TO.N,unconnected-(U6-Pad9)*%
X224960000Y-135500000D03*
%TO.P,U6,10*%
%TO.N,unconnected-(U6-Pad10)*%
X222420000Y-135500000D03*
%TO.P,U6,11*%
%TO.N,unconnected-(U6-Pad11)*%
X219880000Y-135500000D03*
%TO.P,U6,12*%
%TO.N,GND*%
X217340000Y-135500000D03*
%TO.P,U6,13*%
%TO.N,Net-(R22-Pad1)*%
X214800000Y-135500000D03*
%TO.P,U6,14,V_{DD}_14*%
%TO.N,+5V*%
X212260000Y-135500000D03*
%TD*%
D10*
%TO.P,RV2,1,1_1*%
%TO.N,Net-(RV2-Pad1)*%
X141450000Y-150250000D03*
%TO.P,RV2,2,2_2*%
%TO.N,Net-(R27-Pad2)*%
X146450000Y-152750000D03*
%TO.P,RV2,3,3_3*%
%TO.N,unconnected-(RV2-Pad3)*%
X141450000Y-155250000D03*
%TD*%
D11*
%TO.P,R29,1*%
%TO.N,Net-(U7-DISCH)*%
X208110000Y-164600000D03*
%TO.P,R29,2*%
%TO.N,Net-(R29-Pad2)*%
X200490000Y-164600000D03*
%TD*%
%TO.P,C7,1*%
%TO.N,+5V*%
X152250000Y-143400000D03*
%TO.P,C7,2*%
%TO.N,GND*%
X152250000Y-138400000D03*
%TD*%
%TO.P,C6,1*%
%TO.N,+5V*%
X218200000Y-114950000D03*
%TO.P,C6,2*%
%TO.N,GND*%
X213200000Y-114950000D03*
%TD*%
D19*
%TO.P,C11,1*%
%TO.N,Net-(C11-Pad1)*%
X219500000Y-161100000D03*
D11*
%TO.P,C11,2*%
%TO.N,Net-(J2-Pin_1)*%
X222000000Y-161100000D03*
%TD*%
D12*
%TO.P,D16,1,K_1*%
%TO.N,GND*%
X142570000Y-163150000D03*
D13*
%TO.P,D16,2,A_2*%
%TO.N,Net-(D16-A)*%
X145110000Y-163150000D03*
%TD*%
D14*
%TO.P,D13,1,K_1*%
%TO.N,Net-(D13-K)*%
X219300000Y-111380000D03*
D15*
%TO.P,D13,2,A_2*%
%TO.N,/E2*%
X219300000Y-106300000D03*
%TD*%
D14*
%TO.P,D1,1,K_1*%
%TO.N,Net-(D1-K)*%
X169700000Y-111400000D03*
D15*
%TO.P,D1,2,A_2*%
%TO.N,/E2*%
X169700000Y-106320000D03*
%TD*%
D11*
%TO.P,R16,1*%
%TO.N,Net-(R16-Pad1)*%
X200490000Y-149350000D03*
%TO.P,R16,2*%
%TO.N,GND*%
X208110000Y-149350000D03*
%TD*%
D19*
%TO.P,C5,1*%
%TO.N,+5V*%
X219500000Y-152200000D03*
D11*
%TO.P,C5,2*%
%TO.N,GND*%
X222000000Y-152200000D03*
%TD*%
%TO.P,R10,1*%
%TO.N,+5V*%
X170280000Y-117200000D03*
%TO.P,R10,2*%
%TO.N,/B2*%
X177900000Y-117200000D03*
%TD*%
D18*
%TO.P,U5,1*%
%TO.N,Net-(RV2-Pad1)*%
X190960000Y-143120000D03*
D11*
%TO.P,U5,2*%
%TO.N,Net-(U7-THRES)*%
X193500000Y-143120000D03*
%TO.P,U5,3*%
%TO.N,Net-(RV3-Pad1)*%
X196040000Y-143120000D03*
%TO.P,U5,4*%
%TO.N,Net-(U7-THRES)*%
X198580000Y-143120000D03*
%TO.P,U5,5*%
%TO.N,Net-(R16-Pad1)*%
X201120000Y-143120000D03*
%TO.P,U5,6*%
%TO.N,Net-(R18-Pad1)*%
X203660000Y-143120000D03*
%TO.P,U5,7,V_{SS}_7*%
%TO.N,GND*%
X206200000Y-143120000D03*
%TO.P,U5,8*%
%TO.N,Net-(RV4-Pad1)*%
X206200000Y-135500000D03*
%TO.P,U5,9*%
%TO.N,Net-(U7-THRES)*%
X203660000Y-135500000D03*
%TO.P,U5,10*%
%TO.N,Net-(RV5-Pad1)*%
X201120000Y-135500000D03*
%TO.P,U5,11*%
%TO.N,Net-(U7-THRES)*%
X198580000Y-135500000D03*
%TO.P,U5,12*%
%TO.N,Net-(R20-Pad1)*%
X196040000Y-135500000D03*
%TO.P,U5,13*%
%TO.N,Net-(R14-Pad1)*%
X193500000Y-135500000D03*
%TO.P,U5,14,V_{DD}_14*%
%TO.N,+5V*%
X190960000Y-135500000D03*
%TD*%
%TO.P,R4,1*%
%TO.N,Net-(Q1-B)*%
X148600000Y-111500000D03*
%TO.P,R4,2*%
%TO.N,GND*%
X140980000Y-111500000D03*
%TD*%
%TO.P,C3,1*%
%TO.N,GND*%
X181000000Y-130650000D03*
%TO.P,C3,2*%
%TO.N,Net-(U1-CONT)*%
X176000000Y-130650000D03*
%TD*%
%TO.P,C9,1*%
%TO.N,Net-(U7-OUT)*%
X148250000Y-146000000D03*
%TO.P,C9,2*%
%TO.N,Net-(C9-Pad2)*%
X153250000Y-146000000D03*
%TD*%
%TO.P,R24,1*%
%TO.N,Net-(R24-Pad1)*%
X215950000Y-158650000D03*
%TO.P,R24,2*%
%TO.N,GND*%
X215950000Y-166270000D03*
%TD*%
%TO.P,R31,1*%
%TO.N,Net-(U7-DISCH)*%
X194850000Y-153460000D03*
%TO.P,R31,2*%
%TO.N,Net-(R31-Pad2)*%
X194850000Y-145840000D03*
%TD*%
D14*
%TO.P,D3,1,K_1*%
%TO.N,Net-(D3-K)*%
X178000000Y-111400000D03*
D15*
%TO.P,D3,2,A_2*%
%TO.N,/E3*%
X178000000Y-106320000D03*
%TD*%
D21*
%TO.P,Q2,1,E_1*%
%TO.N,GND*%
X143980000Y-107900000D03*
D22*
%TO.P,Q2,2,B_2*%
%TO.N,Net-(Q2-B)*%
X146520000Y-107900000D03*
%TO.P,Q2,3,C_3*%
%TO.N,Net-(Q2-C)*%
X149060000Y-107900000D03*
%TD*%
D11*
%TO.P,C4,1*%
%TO.N,+5V*%
X185800000Y-117200000D03*
%TO.P,C4,2*%
%TO.N,GND*%
X180800000Y-117200000D03*
%TD*%
%TO.P,R28,1*%
%TO.N,Net-(U7-DISCH)*%
X208100000Y-161550000D03*
%TO.P,R28,2*%
%TO.N,Net-(R28-Pad2)*%
X200480000Y-161550000D03*
%TD*%
D14*
%TO.P,D14,1,K_1*%
%TO.N,Net-(D14-K)*%
X223450000Y-111380000D03*
D15*
%TO.P,D14,2,A_2*%
%TO.N,/E2*%
X223450000Y-106300000D03*
%TD*%
D11*
%TO.P,R30,1*%
%TO.N,Net-(U7-DISCH)*%
X197900000Y-163220000D03*
%TO.P,R30,2*%
%TO.N,Net-(R30-Pad2)*%
X197900000Y-155600000D03*
%TD*%
%TO.P,R22,1*%
%TO.N,Net-(R22-Pad1)*%
X210700000Y-148900000D03*
%TO.P,R22,2*%
%TO.N,GND*%
X210700000Y-156520000D03*
%TD*%
D14*
%TO.P,D11,1,K_1*%
%TO.N,Net-(D11-K)*%
X211000000Y-111380000D03*
D15*
%TO.P,D11,2,A_2*%
%TO.N,/C3*%
X211000000Y-106300000D03*
%TD*%
D11*
%TO.P,C10,1*%
%TO.N,GND*%
X160400000Y-146000000D03*
%TO.P,C10,2*%
%TO.N,Net-(U7-CONT)*%
X155400000Y-146000000D03*
%TD*%
%TO.P,R9,1*%
%TO.N,+5V*%
X160540000Y-117200000D03*
%TO.P,R9,2*%
%TO.N,/Bb2*%
X168160000Y-117200000D03*
%TD*%
%TO.P,R17,1*%
%TO.N,Net-(R16-Pad1)*%
X181700000Y-135480000D03*
%TO.P,R17,2*%
%TO.N,Net-(D17-A)*%
X181700000Y-143100000D03*
%TD*%
%TO.P,C13,1*%
%TO.N,GND*%
X166100000Y-140800000D03*
%TO.P,C13,2*%
%TO.N,+5V*%
X166100000Y-135800000D03*
%TD*%
D18*
%TO.P,U1,1,GND_1*%
%TO.N,GND*%
X151290000Y-127405000D03*
D11*
%TO.P,U1,2,TRIG_2*%
%TO.N,Net-(U1-THRES)*%
X153830000Y-127405000D03*
%TO.P,U1,3,OUT_3*%
%TO.N,Net-(U1-OUT)*%
X156370000Y-127405000D03*
%TO.P,U1,4,~{RST}_4*%
%TO.N,+5V*%
X158910000Y-127405000D03*
%TO.P,U1,5,CONT_5*%
%TO.N,Net-(U1-CONT)*%
X158910000Y-119785000D03*
%TO.P,U1,6,THRES_6*%
%TO.N,Net-(U1-THRES)*%
X156370000Y-119785000D03*
%TO.P,U1,7,DISCH_7*%
%TO.N,Net-(U1-DISCH)*%
X153830000Y-119785000D03*
%TO.P,U1,8,VCC_8*%
%TO.N,+5V*%
X151290000Y-119785000D03*
%TD*%
%TO.P,R5,1*%
%TO.N,Net-(Q1-B)*%
X148610000Y-114500000D03*
%TO.P,R5,2*%
%TO.N,Net-(Q2-C)*%
X140990000Y-114500000D03*
%TD*%
D12*
%TO.P,D18,1,K_1*%
%TO.N,GND*%
X160710000Y-163150000D03*
D13*
%TO.P,D18,2,A_2*%
%TO.N,Net-(D18-A)*%
X163250000Y-163150000D03*
%TD*%
D18*
%TO.P,U8,1,GAIN_1*%
%TO.N,unconnected-(U8-GAIN-Pad1)*%
X155390000Y-143405000D03*
D11*
%TO.P,U8,2,-_2*%
%TO.N,GND*%
X157930000Y-143405000D03*
%TO.P,U8,3,+_3*%
%TO.N,Net-(U8-+)*%
X160470000Y-143405000D03*
%TO.P,U8,4,GND_4*%
%TO.N,GND*%
X163010000Y-143405000D03*
%TO.P,U8,5*%
%TO.N,Net-(C11-Pad1)*%
X163010000Y-135785000D03*
%TO.P,U8,6,V+_6*%
%TO.N,+5V*%
X160470000Y-135785000D03*
%TO.P,U8,7,BYPASS_7*%
%TO.N,unconnected-(U8-BYPASS-Pad7)*%
X157930000Y-135785000D03*
%TO.P,U8,8,GAIN_8*%
%TO.N,unconnected-(U8-GAIN-Pad8)*%
X155390000Y-135785000D03*
%TD*%
D10*
%TO.P,RV5,1,1_1*%
%TO.N,Net-(RV5-Pad1)*%
X168120000Y-150250000D03*
%TO.P,RV5,2,2_2*%
%TO.N,Net-(R30-Pad2)*%
X173120000Y-152750000D03*
%TO.P,RV5,3,3_3*%
%TO.N,unconnected-(RV5-Pad3)*%
X168120000Y-155250000D03*
%TD*%
D23*
%TO.N,Net-(RV4-Pad1)*%
X204050000Y-156400000D03*
%TO.N,Net-(R29-Pad2)*%
X165050000Y-166950000D03*
%TO.N,Net-(C12-Pad1)*%
X156800000Y-147450000D03*
%TO.N,Net-(D20-A)*%
X213700000Y-160800000D03*
%TO.N,/E2*%
X227650000Y-108050000D03*
X231050000Y-108150000D03*
%TO.N,Net-(R14-Pad1)*%
X195850000Y-147400000D03*
X194600000Y-137356938D03*
X225550000Y-145250000D03*
%TO.N,Net-(D16-A)*%
X176950000Y-161300000D03*
%TO.N,Net-(U7-DISCH)*%
X191950000Y-138300000D03*
%TO.N,/Bb2*%
X202650000Y-109600000D03*
X229900000Y-109700000D03*
X168150000Y-109600000D03*
%TO.N,/B2*%
X208400000Y-110500000D03*
X216900000Y-110200000D03*
X205700000Y-115750000D03*
X229150000Y-110300000D03*
%TO.N,Net-(U7-THRES)*%
X203700000Y-141350000D03*
%TO.N,Net-(C9-Pad2)*%
X171550000Y-148150000D03*
%TO.N,Net-(D1-K)*%
X171200000Y-133450000D03*
%TO.N,Net-(D2-K)*%
X173350000Y-133650000D03*
%TO.N,Net-(D3-K)*%
X178700000Y-130000000D03*
%TO.N,Net-(D13-K)*%
X216700000Y-115750000D03*
%TO.N,Net-(D14-K)*%
X212850000Y-112650000D03*
%TO.N,Net-(D15-K)*%
X208750000Y-113250000D03*
%TO.N,Net-(U2-Q3)*%
X198300000Y-121600000D03*
%TO.N,Net-(U2-Q2)*%
X195950000Y-122150000D03*
%TO.N,Net-(U2-Q1)*%
X193300000Y-122850000D03*
%TO.N,Net-(U2-Q0)*%
X191000000Y-123300000D03*
%TO.N,Net-(RV7-Pad1)*%
X216600000Y-151050000D03*
%TO.N,/D3*%
X188300000Y-112000000D03*
X190250000Y-123950000D03*
%TO.N,/E3*%
X230500000Y-127950000D03*
X178050000Y-108400000D03*
%TO.N,Net-(R20-Pad1)*%
X217800000Y-134000000D03*
%TO.N,Net-(D19-A)*%
X196800000Y-166550000D03*
%TO.N,/C3*%
X194450000Y-109000000D03*
X192584265Y-112915735D03*
X214650000Y-119750000D03*
X211050000Y-109000000D03*
%TO.N,Net-(R24-Pad1)*%
X223700000Y-126500000D03*
%TO.N,Net-(R18-Pad1)*%
X186350000Y-145600000D03*
X185000000Y-125550000D03*
%TO.N,Net-(D18-A)*%
X183400000Y-165550000D03*
%TO.N,Net-(R16-Pad1)*%
X201451832Y-136756938D03*
X220500000Y-149750000D03*
%TO.N,Net-(D17-A)*%
X179300000Y-166300000D03*
%TO.N,Net-(RV3-Pad1)*%
X196000000Y-157750000D03*
%TO.N,Net-(R28-Pad2)*%
X199250000Y-157150000D03*
%TO.N,Net-(RV6-Pad1)*%
X176850000Y-146500000D03*
X212050000Y-147750000D03*
%TO.N,Net-(R31-Pad2)*%
X194600000Y-150650000D03*
%TO.N,Net-(C11-Pad1)*%
X151050000Y-136500000D03*
X161450000Y-159450000D03*
%TO.N,Net-(RV2-Pad1)*%
X191000000Y-148850000D03*
%TO.N,Net-(RV5-Pad1)*%
X198650000Y-151400000D03*
%TO.N,Net-(R30-Pad2)*%
X197850000Y-159450000D03*
X172900000Y-159300000D03*
%TD*%
%TO.N,Net-(RV4-Pad1)*%
D24*
X198305635Y-156750000D02*
X198505635Y-156550000D01*
X159230000Y-150250000D02*
X165730000Y-156750000D01*
X165730000Y-156750000D02*
X198305635Y-156750000D01*
X203900000Y-156550000D02*
X204050000Y-156400000D01*
X198505635Y-156550000D02*
X203900000Y-156550000D01*
%TO.N,Net-(R29-Pad2)*%
X200490000Y-164600000D02*
X197940000Y-167150000D01*
X197940000Y-167150000D02*
X165250000Y-167150000D01*
X165250000Y-167150000D02*
X165050000Y-166950000D01*
%TO.N,Net-(C12-Pad1)*%
X156800000Y-147450000D02*
X161100000Y-147450000D01*
X161100000Y-147450000D02*
X162550000Y-146000000D01*
%TO.N,Net-(D20-A)*%
X183510000Y-160450000D02*
X213350000Y-160450000D01*
X180810000Y-163150000D02*
X183510000Y-160450000D01*
X213350000Y-160450000D02*
X213700000Y-160800000D01*
%TO.N,/E2*%
X199800000Y-107600000D02*
X218000000Y-107600000D01*
X219300000Y-106300000D02*
X223450000Y-106300000D01*
X197200000Y-107600000D02*
X198500000Y-106300000D01*
X182150000Y-106320000D02*
X183450000Y-107620000D01*
X183450000Y-107620000D02*
X188880000Y-107620000D01*
X227650000Y-108050000D02*
X230950000Y-108050000D01*
X190200000Y-106300000D02*
X191500000Y-107600000D01*
X198500000Y-106300000D02*
X199800000Y-107600000D01*
X173850000Y-106320000D02*
X175150000Y-107620000D01*
X188880000Y-107620000D02*
X190200000Y-106300000D01*
X218000000Y-107600000D02*
X219300000Y-106300000D01*
X175150000Y-107620000D02*
X180850000Y-107620000D01*
X230950000Y-108050000D02*
X231050000Y-108150000D01*
X191500000Y-107600000D02*
X197200000Y-107600000D01*
X180850000Y-107620000D02*
X182150000Y-106320000D01*
%TO.N,Net-(R14-Pad1)*%
X195850000Y-147400000D02*
X199390000Y-147400000D01*
X225550000Y-145250000D02*
X225500000Y-145200000D01*
X178650000Y-135490000D02*
X180516938Y-137356938D01*
X225500000Y-145200000D02*
X201590000Y-145200000D01*
X180516938Y-137356938D02*
X194600000Y-137356938D01*
X199390000Y-147400000D02*
X200490000Y-146300000D01*
X201590000Y-145200000D02*
X200490000Y-146300000D01*
%TO.N,Net-(D16-A)*%
X176950000Y-161300000D02*
X146960000Y-161300000D01*
X146960000Y-161300000D02*
X145110000Y-163150000D01*
%TO.N,Net-(U7-DISCH)*%
X198180000Y-163500000D02*
X207010000Y-163500000D01*
X195940000Y-152370000D02*
X194850000Y-153460000D01*
X207000000Y-154350000D02*
X200335635Y-154350000D01*
X174451106Y-138570000D02*
X174891106Y-138130000D01*
X169891106Y-138570000D02*
X174451106Y-138570000D01*
X174891106Y-138130000D02*
X191780000Y-138130000D01*
X198355635Y-152370000D02*
X195940000Y-152370000D01*
X194850000Y-163220000D02*
X197900000Y-163220000D01*
X145640000Y-137300000D02*
X168621106Y-137300000D01*
X197900000Y-163220000D02*
X198180000Y-163500000D01*
X144120000Y-135780000D02*
X145640000Y-137300000D01*
X207010000Y-163500000D02*
X208110000Y-164600000D01*
X208100000Y-155450000D02*
X207000000Y-154350000D01*
X191780000Y-138130000D02*
X191950000Y-138300000D01*
X168621106Y-137300000D02*
X169891106Y-138570000D01*
X200335635Y-154350000D02*
X198355635Y-152370000D01*
%TO.N,Net-(R27-Pad2)*%
X150545371Y-158500000D02*
X200490000Y-158500000D01*
X146450000Y-154404629D02*
X150545371Y-158500000D01*
X146450000Y-152750000D02*
X146450000Y-154404629D01*
%TO.N,Net-(U1-THRES)*%
X151825000Y-124330000D02*
X151825000Y-125400000D01*
X156370000Y-119785000D02*
X151825000Y-124330000D01*
X151825000Y-125400000D02*
X153830000Y-127405000D01*
X141700000Y-125400000D02*
X151825000Y-125400000D01*
%TO.N,/Bb2*%
X202650000Y-109600000D02*
X168150000Y-109600000D01*
X202650000Y-109600000D02*
X229800000Y-109600000D01*
X229800000Y-109600000D02*
X229900000Y-109700000D01*
%TO.N,/B2*%
X208400000Y-110500000D02*
X208820000Y-110080000D01*
X208820000Y-110080000D02*
X216780000Y-110080000D01*
X177900000Y-118550000D02*
X177900000Y-117200000D01*
X228930000Y-110080000D02*
X229150000Y-110300000D01*
X204650000Y-119300000D02*
X204050000Y-118700000D01*
X204050000Y-118700000D02*
X178050000Y-118700000D01*
X205110000Y-116340000D02*
X205110000Y-118840000D01*
X216780000Y-110080000D02*
X216900000Y-110200000D01*
X216900000Y-110200000D02*
X217020000Y-110080000D01*
X217020000Y-110080000D02*
X228930000Y-110080000D01*
X205700000Y-115750000D02*
X205110000Y-116340000D01*
X178050000Y-118700000D02*
X177900000Y-118550000D01*
X205110000Y-118840000D02*
X204650000Y-119300000D01*
%TO.N,Net-(U7-THRES)*%
X219880000Y-141680000D02*
X219880000Y-143120000D01*
X213030000Y-141350000D02*
X214800000Y-143120000D01*
X193500000Y-143120000D02*
X194600000Y-144220000D01*
X193500000Y-143120000D02*
X192115000Y-144505000D01*
X147595000Y-144505000D02*
X146100000Y-146000000D01*
X214800000Y-143120000D02*
X216620000Y-141300000D01*
X198580000Y-135500000D02*
X199680000Y-134400000D01*
X216620000Y-141300000D02*
X219500000Y-141300000D01*
X219500000Y-141300000D02*
X219880000Y-141680000D01*
X203700000Y-141350000D02*
X213030000Y-141350000D01*
X192115000Y-144505000D02*
X147595000Y-144505000D01*
X202560000Y-134400000D02*
X203660000Y-135500000D01*
X199680000Y-134400000D02*
X202560000Y-134400000D01*
X194600000Y-144220000D02*
X197480000Y-144220000D01*
X197480000Y-144220000D02*
X198580000Y-143120000D01*
%TO.N,Net-(C9-Pad2)*%
X155400000Y-148150000D02*
X171550000Y-148150000D01*
X153250000Y-146000000D02*
X155400000Y-148150000D01*
%TO.N,Net-(U8-+)*%
X160470000Y-143405000D02*
X164275000Y-139600000D01*
X164275000Y-139600000D02*
X175500000Y-139600000D01*
%TO.N,Net-(D1-K)*%
X171810000Y-132840000D02*
X188430000Y-132840000D01*
X171200000Y-133450000D02*
X171810000Y-132840000D01*
%TO.N,Net-(D2-K)*%
X173350000Y-133650000D02*
X173800000Y-134100000D01*
X189710000Y-134100000D02*
X190970000Y-132840000D01*
X173800000Y-134100000D02*
X189710000Y-134100000D01*
%TO.N,Net-(D3-K)*%
X193510000Y-130440000D02*
X193510000Y-132840000D01*
X193600000Y-130350000D02*
X193510000Y-130440000D01*
X179150000Y-129550000D02*
X192800000Y-129550000D01*
X178700000Y-130000000D02*
X179150000Y-129550000D01*
X192800000Y-129550000D02*
X193600000Y-130350000D01*
%TO.N,Net-(D13-K)*%
X216700000Y-115750000D02*
X215680000Y-115750000D01*
X215680000Y-115750000D02*
X213830000Y-117600000D01*
%TO.N,Net-(D14-K)*%
X213050000Y-112850000D02*
X212850000Y-112650000D01*
X223450000Y-111380000D02*
X223450000Y-112850000D01*
X223450000Y-112850000D02*
X213050000Y-112850000D01*
%TO.N,Net-(D15-K)*%
X226950000Y-113250000D02*
X208750000Y-113250000D01*
X227600000Y-111380000D02*
X227600000Y-112600000D01*
X227600000Y-112600000D02*
X226950000Y-113250000D01*
%TO.N,Net-(U3-~{S15})*%
X169280000Y-115260000D02*
X174044314Y-115260000D01*
X204019314Y-119235000D02*
X204484314Y-119700000D01*
X206210000Y-118731370D02*
X206210000Y-117600000D01*
X174044314Y-115260000D02*
X178019314Y-119235000D01*
X178019314Y-119235000D02*
X204019314Y-119235000D01*
X204484314Y-119700000D02*
X205241370Y-119700000D01*
X205241370Y-119700000D02*
X206210000Y-118731370D01*
X168170000Y-114150000D02*
X169280000Y-115260000D01*
%TO.N,Net-(U2-Q3)*%
X177310000Y-120335000D02*
X178525000Y-121550000D01*
X178525000Y-121550000D02*
X198250000Y-121550000D01*
X198250000Y-121550000D02*
X198300000Y-121600000D01*
%TO.N,Net-(U2-Q2)*%
X174770000Y-120335000D02*
X176585000Y-122150000D01*
X176585000Y-122150000D02*
X195950000Y-122150000D01*
%TO.N,Net-(U2-Q1)*%
X174595000Y-122700000D02*
X193150000Y-122700000D01*
X193150000Y-122700000D02*
X193300000Y-122850000D01*
X172230000Y-120335000D02*
X174595000Y-122700000D01*
%TO.N,Net-(U2-Q0)*%
X169690000Y-120335000D02*
X172655000Y-123300000D01*
X172655000Y-123300000D02*
X191000000Y-123300000D01*
%TO.N,Net-(RV7-Pad1)*%
X200634366Y-151050000D02*
X216600000Y-151050000D01*
X199634366Y-150050000D02*
X200634366Y-151050000D01*
X186010000Y-150050000D02*
X199634366Y-150050000D01*
X185810000Y-150250000D02*
X186010000Y-150050000D01*
%TO.N,Net-(R32-Pad2)*%
X190810000Y-152750000D02*
X193660000Y-155600000D01*
X193660000Y-155600000D02*
X194850000Y-155600000D01*
%TO.N,/D3*%
X188300000Y-112670000D02*
X189780000Y-114150000D01*
X188300000Y-112000000D02*
X188300000Y-112670000D01*
X190250000Y-123950000D02*
X190280000Y-123920000D01*
X190280000Y-123920000D02*
X220380000Y-123920000D01*
%TO.N,/E3*%
X225500000Y-108400000D02*
X227600000Y-106300000D01*
X230500000Y-127950000D02*
X230400000Y-127850000D01*
X221530000Y-127850000D02*
X220380000Y-129000000D01*
X178050000Y-108400000D02*
X225500000Y-108400000D01*
X230400000Y-127850000D02*
X221530000Y-127850000D01*
%TO.N,Net-(R20-Pad1)*%
X190504365Y-134400000D02*
X194940000Y-134400000D01*
X217800000Y-134000000D02*
X197540000Y-134000000D01*
X187900000Y-135530000D02*
X189374365Y-135530000D01*
X189374365Y-135530000D02*
X190504365Y-134400000D01*
X194940000Y-134400000D02*
X196040000Y-135500000D01*
X197540000Y-134000000D02*
X196040000Y-135500000D01*
%TO.N,Net-(D19-A)*%
X173450000Y-164950000D02*
X195200000Y-164950000D01*
X195200000Y-164950000D02*
X196800000Y-166550000D01*
X171650000Y-163150000D02*
X173450000Y-164950000D01*
%TO.N,/C3*%
X215560000Y-118840000D02*
X220380000Y-118840000D01*
X194550000Y-108900000D02*
X210950000Y-108900000D01*
X210950000Y-108900000D02*
X211050000Y-109000000D01*
X192584265Y-112915735D02*
X191950000Y-113550000D01*
X214650000Y-119750000D02*
X215560000Y-118840000D01*
X194450000Y-109000000D02*
X194550000Y-108900000D01*
X191950000Y-116000000D02*
X187600000Y-116000000D01*
X187650000Y-115950000D02*
X187650000Y-114150000D01*
X187600000Y-116000000D02*
X187650000Y-115950000D01*
X191950000Y-113550000D02*
X191950000Y-116000000D01*
%TO.N,Net-(R24-Pad1)*%
X223310000Y-126460000D02*
X220380000Y-126460000D01*
X223350000Y-126500000D02*
X223310000Y-126460000D01*
X215930000Y-158630000D02*
X215950000Y-158650000D01*
X223700000Y-126500000D02*
X223350000Y-126500000D01*
X212900000Y-158630000D02*
X215930000Y-158630000D01*
%TO.N,Net-(D21-A)*%
X200474365Y-163100000D02*
X213150000Y-163100000D01*
X212900000Y-163350000D02*
X212900000Y-166250000D01*
X199494365Y-162120000D02*
X200474365Y-163100000D01*
X213150000Y-163100000D02*
X212900000Y-163350000D01*
X189950000Y-163150000D02*
X190980000Y-162120000D01*
X190980000Y-162120000D02*
X199494365Y-162120000D01*
%TO.N,Net-(R18-Pad1)*%
X186350000Y-145600000D02*
X187690000Y-146940000D01*
X197900000Y-145850000D02*
X198950000Y-144800000D01*
X198950000Y-144800000D02*
X203200000Y-144800000D01*
X221820000Y-125020000D02*
X185530000Y-125020000D01*
X196395635Y-145850000D02*
X197900000Y-145850000D01*
X185530000Y-125020000D02*
X185000000Y-125550000D01*
X228000000Y-118840000D02*
X221820000Y-125020000D01*
X203660000Y-144340000D02*
X203660000Y-143120000D01*
X195305635Y-146940000D02*
X196395635Y-145850000D01*
X203200000Y-144800000D02*
X203660000Y-144340000D01*
X187690000Y-146940000D02*
X195305635Y-146940000D01*
%TO.N,Net-(D18-A)*%
X183400000Y-165550000D02*
X165650000Y-165550000D01*
X165650000Y-165550000D02*
X163250000Y-163150000D01*
%TO.N,Net-(U1-OUT)*%
X158020000Y-129055000D02*
X166050000Y-129055000D01*
X166050000Y-129055000D02*
X167150000Y-127955000D01*
X156370000Y-127405000D02*
X158020000Y-129055000D01*
%TO.N,Net-(R16-Pad1)*%
X219800000Y-150450000D02*
X201590000Y-150450000D01*
X201451832Y-136756938D02*
X182976938Y-136756938D01*
X182976938Y-136756938D02*
X181700000Y-135480000D01*
X220500000Y-149750000D02*
X219800000Y-150450000D01*
X201590000Y-150450000D02*
X200490000Y-149350000D01*
%TO.N,Net-(D17-A)*%
X179300000Y-166300000D02*
X157400000Y-166300000D01*
X157400000Y-166300000D02*
X154250000Y-163150000D01*
%TO.N,Net-(RV3-Pad1)*%
X157840000Y-157750000D02*
X196000000Y-157750000D01*
X150340000Y-150250000D02*
X157840000Y-157750000D01*
%TO.N,Net-(R28-Pad2)*%
X158085371Y-157150000D02*
X199250000Y-157150000D01*
X155340000Y-152750000D02*
X155340000Y-154404629D01*
X155340000Y-154404629D02*
X158085371Y-157150000D01*
%TO.N,Net-(RV6-Pad1)*%
X178350000Y-148000000D02*
X210044365Y-148000000D01*
X210294365Y-147750000D02*
X212050000Y-147750000D01*
X210044365Y-148000000D02*
X210294365Y-147750000D01*
X176850000Y-146500000D02*
X178350000Y-148000000D01*
%TO.N,Net-(R31-Pad2)*%
X181920000Y-152750000D02*
X185665420Y-152750000D01*
X187765420Y-150650000D02*
X194600000Y-150650000D01*
X185665420Y-152750000D02*
X187765420Y-150650000D01*
%TO.N,Net-(C11-Pad1)*%
X219500000Y-161100000D02*
X218450000Y-160050000D01*
X218450000Y-160050000D02*
X162050000Y-160050000D01*
X162050000Y-160050000D02*
X161450000Y-159450000D01*
X151450000Y-136900000D02*
X161895000Y-136900000D01*
X161895000Y-136900000D02*
X163010000Y-135785000D01*
X151050000Y-136500000D02*
X151450000Y-136900000D01*
%TO.N,Net-(Q1-B)*%
X154060000Y-107900000D02*
X152210000Y-106050000D01*
X147850000Y-106050000D02*
X147850000Y-110750000D01*
X152210000Y-106050000D02*
X147850000Y-106050000D01*
X147850000Y-110750000D02*
X148600000Y-111500000D01*
%TO.N,Net-(RV2-Pad1)*%
X142920000Y-148780000D02*
X190930000Y-148780000D01*
X190930000Y-148780000D02*
X191000000Y-148850000D01*
X141450000Y-150250000D02*
X142920000Y-148780000D01*
%TO.N,Net-(RV5-Pad1)*%
X168120000Y-150250000D02*
X174841106Y-150250000D01*
X184761106Y-154220000D02*
X187701106Y-151280000D01*
X198530000Y-151280000D02*
X198650000Y-151400000D01*
X174841106Y-150250000D02*
X178811106Y-154220000D01*
X178811106Y-154220000D02*
X184761106Y-154220000D01*
X187701106Y-151280000D02*
X198530000Y-151280000D01*
%TO.N,Net-(U1-CONT)*%
X158910000Y-119785000D02*
X165980000Y-126855000D01*
X175225635Y-126855000D02*
X176000000Y-127629365D01*
X165980000Y-126855000D02*
X175225635Y-126855000D01*
X176000000Y-127629365D02*
X176000000Y-130650000D01*
%TO.N,Net-(R30-Pad2)*%
X197700000Y-159300000D02*
X197850000Y-159450000D01*
X172900000Y-159300000D02*
X197700000Y-159300000D01*
%TD*%
M02*
